<?xml version="1.0" standalone="no"?>
<!DOCTYPE svg PUBLIC "-//W3C//DTD SVG 20010904//EN"
 "http://www.w3.org/TR/2001/REC-SVG-20010904/DTD/svg10.dtd">
<svg version="1.0" xmlns="http://www.w3.org/2000/svg"
 width="292.000000pt" height="292.000000pt" viewBox="0 0 292.000000 292.000000"
 preserveAspectRatio="xMidYMid meet">
<metadata>
Created by potrace 1.11, written by Peter Selinger 2001-2013
</metadata>
<g transform="translate(0.000000,292.000000) scale(0.100000,-0.100000)"
fill="#000000" stroke="none">
<path d="M2523 2838 c3 -7 41 -75 85 -151 78 -135 81 -138 95 -115 30 47 157
269 157 274 0 2 -77 4 -171 4 -133 0 -170 -3 -166 -12z"/>
<path d="M2383 2677 c-46 -79 -83 -147 -83 -150 0 -4 77 -7 171 -7 94 0 169 4
167 8 -10 25 -164 292 -168 292 -3 0 -42 -65 -87 -143z"/>
<path d="M337 2653 l-86 -148 84 -3 c46 -1 125 -1 174 0 l90 3 -80 140 c-45
77 -85 144 -89 148 -4 5 -46 -58 -93 -140z"/>
<path d="M809 2618 c-23 -40 -57 -99 -75 -131 -19 -32 -34 -60 -34 -63 0 -2
70 -4 154 -4 l155 0 -76 133 c-42 72 -77 133 -78 135 -2 2 -22 -29 -46 -70z"/>
<path d="M1953 2560 c-40 -70 -73 -131 -73 -134 0 -3 68 -6 150 -6 83 0 150 3
150 6 0 8 -142 254 -149 258 -3 2 -39 -54 -78 -124z"/>
<path d="M2300 2463 c0 -9 164 -293 170 -293 4 0 158 267 168 292 2 4 -73 8
-167 8 -94 0 -171 -3 -171 -7z"/>
<path d="M336 2303 c47 -82 87 -149 88 -150 1 -1 41 65 89 147 l86 150 -174 0
-174 0 85 -147z"/>
<path d="M2605 2299 c-44 -77 -81 -144 -83 -150 -2 -5 65 -9 168 -9 94 0 170
4 168 8 -10 26 -164 291 -168 291 -3 0 -41 -63 -85 -140z"/>
<path d="M117 2273 l-86 -148 84 -3 c46 -1 125 -1 174 0 l90 3 -80 140 c-45
77 -85 144 -89 148 -4 5 -46 -58 -93 -140z"/>
<path d="M700 2375 c0 -8 142 -255 149 -260 8 -4 151 238 151 255 0 6 -57 10
-150 10 -82 0 -150 -2 -150 -5z"/>
<path d="M1880 2373 c0 -11 144 -263 150 -262 6 0 150 252 150 262 0 4 -67 7
-150 7 -82 0 -150 -3 -150 -7z"/>
<path d="M578 2217 l-75 -132 150 -3 c82 -1 151 -1 154 1 3 3 -138 251 -149
263 -2 2 -38 -56 -80 -129z"/>
<path d="M968 2214 l-77 -134 155 0 c84 0 154 3 154 6 0 7 -139 246 -148 256
-4 3 -42 -54 -84 -128z"/>
<path d="M1757 2219 c-43 -73 -75 -134 -73 -136 2 -2 71 -2 153 -1 l150 3 -69
120 c-38 66 -72 126 -77 133 -5 10 -32 -28 -84 -119z"/>
<path d="M2148 2217 l-77 -132 151 -3 c83 -1 152 -1 154 1 3 3 -138 252 -149
263 -1 2 -37 -56 -79 -129z"/>
<path d="M2520 2083 c0 -11 164 -293 170 -293 5 0 170 284 170 294 0 3 -76 6
-170 6 -93 0 -170 -3 -170 -7z"/>
<path d="M116 1923 c47 -82 87 -149 89 -151 1 -1 41 65 88 148 l86 150 -174 0
-174 0 85 -147z"/>
<path d="M2382 1913 c-45 -81 -81 -148 -79 -150 2 -2 79 -2 170 -1 l166 3 -80
140 c-44 77 -83 143 -87 147 -4 3 -44 -59 -90 -139z"/>
<path d="M337 1893 l-86 -148 84 -3 c46 -1 124 -1 174 0 l90 3 -83 142 c-45
78 -85 145 -88 148 -3 3 -44 -61 -91 -142z"/>
<path d="M510 2029 c0 -11 140 -259 146 -259 3 0 154 260 154 266 0 2 -67 4
-150 4 -103 0 -150 -3 -150 -11z"/>
<path d="M902 2027 c5 -20 141 -257 147 -257 6 1 142 239 149 260 2 6 -54 10
-148 10 -119 0 -151 -3 -148 -13z"/>
<path d="M1290 2034 c0 -10 144 -263 150 -264 6 0 143 239 148 258 3 9 -32 12
-147 12 -83 0 -151 -3 -151 -6z"/>
<path d="M1680 2036 c0 -6 140 -250 149 -259 7 -7 151 233 151 252 0 7 -51 11
-150 11 -82 0 -150 -2 -150 -4z"/>
<path d="M2078 2035 c-5 -5 130 -246 146 -262 3 -4 156 252 156 263 0 6 -296
5 -302 -1z"/>
<path d="M809 1938 c-23 -40 -57 -99 -75 -131 -19 -32 -34 -60 -34 -63 0 -2
70 -4 154 -4 l155 0 -76 133 c-42 72 -77 133 -78 135 -2 2 -22 -29 -46 -70z"/>
<path d="M1167 1878 l-76 -133 80 -3 c44 -2 113 -2 154 0 l74 3 -75 130 c-42
72 -77 131 -79 133 -1 1 -36 -57 -78 -130z"/>
<path d="M1559 1877 l-77 -132 151 -3 c82 -1 152 -1 154 1 3 4 -131 242 -146
259 -3 4 -40 -53 -82 -125z"/>
<path d="M1953 1880 c-40 -70 -73 -131 -73 -134 0 -3 68 -6 150 -6 83 0 150 3
150 6 0 8 -142 254 -149 258 -3 2 -39 -54 -78 -124z"/>
<path d="M2300 1698 c0 -11 162 -288 169 -288 5 0 171 281 171 291 0 2 -76 4
-170 4 -93 0 -170 -3 -170 -7z"/>
<path d="M1090 1696 c0 -6 141 -249 150 -259 6 -7 137 206 158 255 2 4 -66 8
-152 8 -86 0 -156 -2 -156 -4z"/>
<path d="M1490 1687 c0 -5 33 -64 72 -133 65 -111 74 -123 86 -107 14 19 142
240 142 245 0 2 -67 3 -150 3 -82 0 -150 -4 -150 -8z"/>
<path d="M262 1668 c9 -13 48 -81 88 -151 40 -70 74 -126 75 -125 2 2 42 69
89 151 l85 147 -175 0 -176 0 14 -22z"/>
<path d="M578 1537 l-75 -132 73 -3 c40 -2 109 -2 154 0 l80 3 -73 128 c-41
70 -76 129 -78 132 -3 2 -39 -55 -81 -128z"/>
<path d="M1407 1613 c-63 -105 -117 -201 -117 -207 0 -3 68 -6 150 -6 83 0
150 3 150 8 0 4 -33 65 -74 135 l-74 128 -35 -58z"/>
<path d="M2148 1537 l-77 -132 74 -3 c41 -2 110 -2 154 0 l81 3 -74 128 c-41
70 -76 130 -78 132 -2 2 -38 -55 -80 -128z"/>
<path d="M2602 1527 c-45 -78 -82 -146 -82 -150 0 -4 77 -7 170 -7 94 0 170 3
170 7 0 10 -164 293 -170 293 -3 0 -43 -64 -88 -143z"/>
<path d="M117 1513 l-85 -148 84 -3 c46 -1 123 -1 173 0 l90 3 -83 142 c-45
78 -85 145 -88 148 -3 3 -44 -61 -91 -142z"/>
<path d="M654 1352 l-152 -3 74 -126 c40 -69 75 -128 78 -130 2 -2 38 55 80
128 42 72 75 132 74 133 -2 0 -71 0 -154 -2z"/>
<path d="M902 1344 c5 -18 142 -254 147 -254 5 1 151 253 151 261 0 2 -68 4
-150 4 -100 0 -150 -4 -148 -11z"/>
<path d="M1290 1354 c0 -10 144 -263 150 -264 6 0 144 238 148 257 3 10 -28
13 -147 13 -83 0 -151 -3 -151 -6z"/>
<path d="M1680 1352 c0 -5 142 -247 149 -255 7 -7 151 232 151 250 0 4 -67 8
-150 8 -82 0 -150 -1 -150 -3z"/>
<path d="M2224 1352 l-152 -3 74 -126 c40 -69 75 -128 78 -130 2 -2 38 55 80
128 42 72 75 132 74 133 -2 0 -71 0 -154 -2z"/>
<path d="M776 1200 c-42 -72 -76 -133 -76 -136 0 -2 70 -4 154 -4 l155 0 -76
133 c-42 72 -77 133 -78 135 -2 2 -37 -56 -79 -128z"/>
<path d="M1167 1198 l-76 -133 80 -3 c44 -2 113 -2 154 0 l74 3 -75 130 c-42
72 -77 131 -79 133 -1 1 -36 -57 -78 -130z"/>
<path d="M1559 1197 l-76 -132 150 -3 c82 -1 152 -1 154 1 3 4 -131 242 -146
259 -3 4 -40 -53 -82 -125z"/>
<path d="M1953 1200 c-40 -70 -73 -131 -73 -134 0 -3 68 -6 150 -6 83 0 150 3
150 6 0 8 -142 254 -149 258 -3 2 -39 -54 -78 -124z"/>
<path d="M2520 1315 c0 -2 38 -70 84 -151 l84 -146 58 99 c31 54 70 119 85
146 16 26 29 49 29 52 0 3 -76 5 -170 5 -93 0 -170 -2 -170 -5z"/>
<path d="M42 1288 c8 -13 43 -72 78 -133 35 -60 68 -118 75 -128 11 -15 21 -1
85 110 41 71 80 138 88 151 l14 22 -177 0 -177 0 14 -22z"/>
<path d="M2382 1146 c-45 -79 -82 -146 -82 -150 0 -3 77 -6 171 -6 96 0 169 4
167 9 -8 22 -164 290 -168 291 -3 0 -43 -65 -88 -144z"/>
<path d="M337 1133 l-86 -148 84 -3 c46 -1 124 -1 173 0 l90 3 -82 142 c-45
78 -84 144 -87 148 -4 3 -45 -61 -92 -142z"/>
<path d="M700 1011 c0 -6 143 -252 150 -256 6 -4 150 238 150 252 0 5 -67 8
-150 8 -82 0 -150 -2 -150 -4z"/>
<path d="M1880 1011 c0 -9 145 -261 150 -261 5 0 150 252 150 260 0 3 -67 5
-150 5 -82 0 -150 -2 -150 -4z"/>
<path d="M973 861 c-40 -70 -73 -130 -73 -134 0 -4 68 -7 150 -7 83 0 150 2
150 5 0 7 -139 247 -148 257 -4 4 -40 -51 -79 -121z"/>
<path d="M1757 859 c-43 -73 -75 -134 -73 -136 2 -2 71 -2 153 -1 l150 3 -69
120 c-38 66 -72 126 -77 133 -5 10 -32 -28 -84 -119z"/>
<path d="M2300 933 c0 -10 164 -293 170 -292 4 0 159 267 168 291 2 4 -73 8
-167 8 -94 0 -171 -3 -171 -7z"/>
<path d="M262 908 c8 -13 47 -80 88 -150 40 -71 74 -128 75 -128 1 0 35 57 75
128 40 70 79 137 88 150 l14 22 -177 0 -177 0 14 -22z"/>
<path d="M2605 769 c-44 -77 -81 -144 -83 -149 -2 -6 63 -10 168 -10 94 0 170
4 168 8 -9 24 -164 291 -168 291 -3 0 -41 -63 -85 -140z"/>
<path d="M118 753 l-86 -148 84 -3 c46 -1 123 -1 172 0 l90 3 -82 142 c-45 78
-84 144 -87 147 -3 4 -44 -60 -91 -141z"/>
<path d="M902 664 c5 -18 142 -254 147 -254 5 1 151 253 151 261 0 2 -68 4
-150 4 -100 0 -150 -4 -148 -11z"/>
<path d="M1290 671 c0 -7 145 -260 150 -261 5 0 143 238 148 255 1 6 -52 10
-148 10 -82 0 -150 -2 -150 -4z"/>
<path d="M1680 674 c0 -7 139 -246 149 -257 5 -5 34 38 66 95 32 57 66 115 76
129 10 14 16 29 12 33 -8 8 -303 8 -303 0z"/>
<path d="M1167 518 l-76 -133 80 -3 c44 -2 113 -2 154 0 l74 3 -75 130 c-42
72 -77 131 -79 133 -1 1 -36 -57 -78 -130z"/>
<path d="M1559 517 l-76 -132 150 -3 c82 -1 152 -1 154 1 3 4 -131 242 -146
259 -3 4 -40 -53 -82 -125z"/>
<path d="M2520 553 c0 -11 164 -293 170 -293 5 0 161 269 168 291 2 5 -65 9
-167 9 -94 0 -171 -3 -171 -7z"/>
<path d="M42 528 c8 -13 47 -80 88 -150 40 -71 74 -128 75 -128 1 0 35 57 76
128 40 70 79 137 87 150 l14 22 -177 0 -177 0 14 -22z"/>
<path d="M2382 383 c-46 -80 -81 -147 -79 -149 2 -3 79 -3 171 -2 l166 3 -81
140 c-44 77 -84 143 -87 147 -4 3 -44 -59 -90 -139z"/>
<path d="M1090 333 c0 -14 155 -262 160 -256 4 4 39 63 78 130 l70 122 -154 3
c-85 2 -154 2 -154 1z"/>
<path d="M1490 327 c0 -5 33 -64 72 -133 65 -111 74 -123 86 -107 14 19 142
240 142 245 0 2 -67 3 -150 3 -82 0 -150 -4 -150 -8z"/>
</g>
</svg>
